<?xml version="1.0" encoding="utf-8"?>
<!-- Generator: Adobe Illustrator 24.3.0, SVG Export Plug-In . SVG Version: 6.00 Build 0)  -->
<svg version="1.1" id="Layer_1" xmlns="http://www.w3.org/2000/svg" xmlns:xlink="http://www.w3.org/1999/xlink" x="0px" y="0px"
	 viewBox="0 0 24 24" style="enable-background:new 0 0 24 24;" xml:space="preserve">
<style type="text/css">@import
      url('../oxygen-webhelp/template/fonts/SourceSansPro.css');
	.st0{fill:none;}
	.st1{fill-rule:evenodd;clip-rule:evenodd;fill:#FFD000;}
	.st2{fill-rule:evenodd;clip-rule:evenodd;}
</style>
<path class="st0" d="M0,0h24v24H0V0z"/>
<path d="M12,6l7.5,13H4.5L12,6 M11.1,3.5l-9.3,16C1.5,20.2,2,21,2.7,21h18.5c0.8,0,1.3-0.8,0.9-1.5l-9.3-16
	C12.5,2.8,11.5,2.8,11.1,3.5z"/>
<g id="group47-35_6_">
	<g id="group48-36_6_">
		<g id="group49-37_6_">
			<g id="shape50-38_6_">
				<path class="st0" d="M-42-1.9h20.9V19H-42V-1.9z"/>
			</g>
		</g>
	</g>
</g>
<polygon class="st1" points="4.5,19 12,6 19.5,19 "/>
<g>
	<polygon class="st2" points="13.1,16.7 12.3,16.6 12.4,14.5 10.3,15.5 11.7,9.9 12.3,10.3 13,10.3 11.8,13.7 13.7,12.8 	"/>
	<polygon class="st2" points="11.9,16.4 12.5,18 13.5,16.7 	"/>
</g>
</svg>
