<?xml version="1.0" encoding="utf-8"?>
<!-- Generator: Adobe Illustrator 25.4.1, SVG Export Plug-In . SVG Version: 6.00 Build 0)  -->
<svg version="1.1" id="Layer_1" xmlns="http://www.w3.org/2000/svg" xmlns:xlink="http://www.w3.org/1999/xlink" x="0px" y="0px"
	 viewBox="0 0 24 24" style="enable-background:new 0 0 24 24;" xml:space="preserve">
<style type="text/css">@import
      url('../oxygen-webhelp/template/fonts/SourceSansPro.css');
	.st0{fill:none;}
	.st1{fill-rule:evenodd;clip-rule:evenodd;fill:#FFD000;}
	.st2{fill:none;stroke:#000000;stroke-miterlimit:10;}
	.st3{fill:#FFFFFF;stroke:#000000;stroke-miterlimit:10;}
	.st4{fill:#000000;}
</style>
<path class="st0" d="M0,0h24v24H0V0z"/>
<g id="group47-35_6_">
	<g id="group48-36_6_">
		<g id="group49-37_6_">
			<g id="shape50-38_6_">
				<path class="st0" d="M-42-1.9h20.9V19H-42V-1.9z"/>
			</g>
		</g>
	</g>
</g>
<g>
	<path class="st4" d="M12,6l7.5,13h-15L12,6 M11.1,3.5l-9.3,16C1.5,20.2,2,21,2.7,21h18.5c0.8,0,1.3-0.8,0.9-1.5l-9.3-16
		C12.5,2.8,11.5,2.8,11.1,3.5z"/>
	<polygon class="st1" points="4.5,19 12,6 19.5,19 	"/>
	<path class="st2" d="M13.7,10.8l-0.3,0.8c-0.2,0.7-0.2,1.5,0.2,2.1l0,0c0.4,0.7,0.3,1.5,0,2.1l-0.5,0.9"/>
	<path class="st2" d="M12.2,10.8l-0.3,0.8c-0.2,0.7-0.2,1.5,0.2,2.1l0,0c0.4,0.7,0.3,1.5,0,2.1l-0.5,0.9"/>
	<path class="st2" d="M10.8,10.8l-0.3,0.8c-0.2,0.7-0.2,1.5,0.2,2.1l0,0c0.4,0.7,0.3,1.5,0,2.1l-0.5,0.9"/>
	<line class="st3" x1="8.6" y1="17.7" x2="15.3" y2="17.7"/>
</g>
</svg>
