<?xml version="1.0" encoding="UTF-8"?>
<!DOCTYPE svg PUBLIC "-//W3C//DTD SVG 1.1//EN" "http://www.w3.org/Graphics/SVG/1.1/DTD/svg11.dtd">
<!-- Generated by Microsoft Visio, SVG Export Page-2.svg Page-1 --><svg xmlns="http://www.w3.org/2000/svg" width="20" height="20" viewBox="0 0 43.2626 39.5106" xml:space="preserve" color-interpolation-filters="sRGB" class="st3">
	<title>source_cinema_symbols.vsdm</title>
	<v:documentProperties xmlns:v="http://schemas.microsoft.com/visio/2003/SVGExtensions/" v:langID="1033" v:viewMarkup="false"/>

	<style type="text/css">@import
      url('../oxygen-webhelp/template/fonts/SourceSansPro.css');
	
		.st1 {fill:#F4CD00;stroke:none;stroke-linecap:butt;stroke-width:0.940729}
		.st2 {fill:#000000;stroke:none;stroke-linecap:butt;stroke-width:0.940729}
		.st3 {fill:none;fill-rule:evenodd;font-size:12px;overflow:visible;stroke-linecap:square;stroke-miterlimit:3}
	
	</style>

	<g xmlns:v="http://schemas.microsoft.com/visio/2003/SVGExtensions/" v:mID="0" v:index="1" v:groupContext="foregroundPage">
		<title>Page-1</title>
		<v:pageProperties v:drawingScale="1" v:pageScale="1" v:drawingUnits="0" v:shadowOffsetX="9" v:shadowOffsetY="-9"/>
		<g id="group41-1" transform="translate(0.765141,-0.940729)" v:mID="41" v:groupContext="group">
			<title>Sheet.41</title>
			<g id="group42-2" v:mID="42" v:groupContext="group">
				<title>Sheet.42</title>
				<g id="shape43-3" v:mID="43" v:groupContext="shape" transform="translate(0.376292,-0.752583)">
					<title>Sheet.43</title>
					<path d="M2.63 39.51 L38.29 39.51 C39.89 39.51 40.83 37.82 40.08 36.41 L22.2 4.42 C21.45 3.01 19.38 3.01 18.63          4.42 L0.75 36.41 C0 37.82 1.03 39.51 2.63 39.51 Z" class="st1"/>
				</g>
				<g id="shape44-5" v:mID="44" v:groupContext="shape">
					<title>Sheet.44</title>
					<path d="M38.66 39.51 L3.01 39.51 C1.98 39.51 1.13 39.04 0.56 38.1 C0.09 37.25 0 36.22 0.56 35.28 L18.44 3.29          C18.91 2.35 19.85 1.88 20.88 1.88 C21.92 1.88 22.86 2.45 23.33 3.29 L41.2 35.28 C41.67 36.12 41.67          37.16 41.2 38.1 C40.55 38.95 39.7 39.51 38.66 39.51 ZM20.79 3.29 C20.32 3.29 19.85 3.57 19.66 3.95          L1.79 35.94 C1.6 36.31 1.6 36.88 1.79 37.25 C1.98 37.63 2.45 37.91 2.92 37.91 L38.57 37.91 C39.04          37.91 39.51 37.63 39.7 37.25 C39.89 36.88 39.98 36.31 39.7 35.94 L21.82 3.95 C21.73 3.57 21.35 3.29          20.79 3.29 Z" class="st2"/>
				</g>
			</g>
			<g id="shape45-7" v:mID="45" v:groupContext="shape" transform="translate(16.3687,-9.78358)">
				<title>Sheet.45</title>
				<path d="M6.77 39.51 L4.99 39.13 L5.08 34.24 L0 36.59 L3.57 23.24 L4.89 23.99 L6.59 24.08 L3.67 32.36 L8.37 30.01         L6.77 39.51 Z" class="st2"/>
			</g>
			<g id="shape46-9" v:mID="46" v:groupContext="shape" transform="translate(20.2257,-6.67918)">
				<title>Sheet.46</title>
				<path d="M0 35.75 L1.41 39.51 L3.95 36.41 L0 35.75 Z" class="st2"/>
			</g>
		</g>
	</g>
</svg>
